<svg width="24" height="24" viewBox="0 0 24 24" fill="none" xmlns="http://www.w3.org/2000/svg">
<path d="M19.59 6.69C18.5672 6.69 17.5866 6.28333 16.8637 5.56044C16.1408 4.83755 15.7342 3.85686 15.7342 2.83413V2.25H12.0942V15.75C12.0942 16.3435 11.8582 16.9128 11.4379 17.3331C11.0176 17.7534 10.4482 17.9894 9.85472 17.9894C9.26121 17.9894 8.69185 17.7534 8.27156 17.3331C7.85126 16.9128 7.61522 16.3435 7.61522 15.75C7.61522 15.1565 7.85126 14.5872 8.27156 14.1669C8.69185 13.7466 9.26121 13.5106 9.85472 13.5106C10.0605 13.5106 10.2625 13.5342 10.4579 13.5796V9.87375C10.2587 9.85125 10.0578 9.84 9.85472 9.84C8.28631 9.84 6.78232 10.4631 5.67326 11.5722C4.56419 12.6812 3.94109 14.1852 3.94109 15.7537C3.94109 17.3221 4.56419 18.8261 5.67326 19.9352C6.78232 21.0442 8.28631 21.6673 9.85472 21.6673C11.4231 21.6673 12.9271 21.0442 14.0362 19.9352C15.1452 18.8261 15.7683 17.3221 15.7683 15.7537V9.03C16.9324 9.86792 18.3238 10.3186 19.7525 10.3181V6.67219C19.6979 6.68344 19.6442 6.69 19.59 6.69Z" fill="#231D1D"/>
</svg>
